<svg width="27" height="27" viewBox="0 0 27 27" fill="none" xmlns="http://www.w3.org/2000/svg">
<path d="M12.9378 13.5H6.09606M5.90213 14.3969L4.77178 17.7734C4.15269 19.6227 3.84315 20.5473 4.06529 21.1167C4.25819 21.6112 4.67252 21.9861 5.18378 22.1289C5.7725 22.2931 6.6617 21.8929 8.4401 21.0927L19.8413 15.9622C21.5772 15.181 22.4451 14.7905 22.7133 14.2479C22.9464 13.7765 22.9464 13.2234 22.7133 12.752C22.4451 12.2095 21.5772 11.8189 19.8413 11.0378L8.42043 5.89841C6.64739 5.10055 5.76088 4.70161 5.17274 4.86527C4.66197 5.00739 4.24769 5.38128 4.05411 5.87485C3.8312 6.44319 4.13744 7.36584 4.74992 9.21113L5.90433 12.6892C6.00951 13.0061 6.06212 13.1646 6.08288 13.3266C6.1013 13.4705 6.10111 13.6161 6.08232 13.7599C6.06114 13.9219 6.00814 14.0802 5.90213 14.3969Z" stroke="#E2E6EE" stroke-width="2" stroke-linecap="round" stroke-linejoin="round"/>
</svg>
