<svg width="40" height="40" viewBox="0 0 40 40" fill="none" xmlns="http://www.w3.org/2000/svg">
<path d="M20 40.0002C31.0457 40.0002 40 31.0459 40 20.0002C40 8.95452 31.0457 0.000213623 20 0.000213623C8.95431 0.000213623 0 8.95452 0 20.0002C0 31.0459 8.95431 40.0002 20 40.0002Z" fill="#9C40ED"/>
<path d="M36.278 19.4486C36.278 21.6558 35.4748 23.161 33.87 23.9634C33.4012 24.1978 31.93 24.515 29.4552 24.9166C27.8504 25.1846 27.048 25.8034 27.048 26.7722V30.8354C27.048 31.0042 27.098 31.5214 27.198 32.391L27.3488 33.9966C27.3488 34.4986 27.2316 35.319 26.9972 36.455C26.362 36.5886 25.626 36.7386 24.79 36.9078C24.522 35.9034 24.3884 35.2182 24.3884 34.8494C24.3884 34.683 24.4304 34.4314 24.5136 34.0966C24.5964 33.763 24.64 33.5122 24.64 33.3434C24.64 33.1114 24.432 32.4582 24.0164 31.3886H23.2384C23.1352 31.5558 23.1008 31.773 23.1344 32.0402C23.268 32.609 23.318 33.0934 23.2852 33.495C22.7164 33.8966 21.9304 34.4314 20.9272 35.1002C20.6928 35.0338 20.61 35.0002 20.6756 35.0002V31.4386C20.61 31.2722 20.442 31.2062 20.174 31.2378H19.5724L18.9708 35.9526C18.5012 35.9862 17.934 35.9862 17.2652 35.9526C17.03 34.8494 16.6128 33.2114 16.0112 31.037H15.6096C15.2408 32.2086 15.0408 32.8446 15.0072 32.9446C15.0072 33.0782 15.0488 33.337 15.1328 33.7214C15.2156 34.1062 15.258 34.365 15.258 34.4986C15.258 34.5986 15.2244 34.8494 15.158 35.251L15.0072 36.455C14.94 36.5214 14.8564 36.555 14.7564 36.555C13.7532 36.555 13.0836 36.3042 12.75 35.8034C12.4156 35.301 12.2812 34.5986 12.3484 33.695L12.75 27.6762C12.75 27.5754 12.7828 27.4418 12.85 27.2746C12.9156 27.1074 12.95 26.9902 12.95 26.9238C12.95 26.6558 12.6656 26.1206 12.0976 25.3182C11.9984 25.2854 11.478 25.1674 10.5428 24.9666C9.97321 24.833 8.85281 24.5994 7.18201 24.2642C4.87361 23.8306 3.72041 21.9742 3.72041 18.6962C3.72041 13.8134 5.72761 9.75022 9.74081 6.50622C9.90641 7.40942 10.1916 8.61262 10.5924 10.1178C10.894 10.1858 11.5464 10.3358 12.5488 10.5694C12.7504 10.6366 13.77 11.0046 15.6096 11.6734C14.672 11.1046 13.4524 10.1858 11.9472 8.91422C11.3784 8.24542 11.094 7.12582 11.094 5.55422C11.094 5.18622 11.73 4.75102 13.0012 4.24862C14.1372 3.78062 14.9912 3.51422 15.5596 3.44622C17.3652 3.21342 18.7532 3.09462 19.7236 3.09462C23.9032 3.09462 27.28 4.16582 29.8548 6.30622C29.0196 7.27662 27.5812 8.31182 25.5416 9.41542C26.3448 9.44902 27.5152 9.13262 29.0532 8.46222C30.5908 7.79422 31.2432 7.45902 31.0096 7.45902C31.2768 7.45902 31.8128 7.99502 32.6152 9.06462C33.2168 9.86702 33.7012 10.5874 34.07 11.221C35.1396 13.1282 35.8584 15.1842 36.2272 17.3914C36.2272 18.1618 36.2436 18.7134 36.2772 19.047V19.4486H36.278ZM17.0656 20.3518C17.0656 18.9142 16.4384 17.551 15.1844 16.2626C13.9296 14.975 12.5836 14.3322 11.146 14.3322C9.87481 14.3322 8.75522 14.8714 7.78522 15.9478C6.81482 17.025 6.33041 18.2206 6.33041 19.533C6.33041 20.6766 6.88201 21.4182 7.98601 21.7542C8.68841 21.9566 9.67362 22.0746 10.9452 22.1074H13.7044C15.9436 22.141 17.0656 21.5558 17.0656 20.3518ZM22.5328 26.573V25.0174C22.2992 24.583 22.0648 24.1314 21.8312 23.6626C21.6304 22.993 21.2624 22.057 20.7272 20.8526L20.1748 26.7222C20.1748 27.191 20.0748 27.4246 19.874 27.4246C19.7404 27.4246 19.6404 27.3918 19.5732 27.3254C19.3388 23.7802 19.2216 22.2418 19.2216 22.709V20.9542C19.1544 20.8526 19.0716 20.8026 18.9716 20.8026C17.834 21.9746 17.266 23.8634 17.266 26.4714C17.266 27.9098 17.398 28.7958 17.6668 29.1306C17.9348 29.0642 18.2356 28.947 18.57 28.7798C18.7036 28.7126 19.088 28.679 19.7248 28.679C20.3584 28.679 21.1288 28.8798 22.0312 29.2806C22.3656 29.2806 22.5328 28.3782 22.5328 26.573ZM33.8704 19.583C33.8704 18.2362 33.3688 17.033 32.3656 15.973C31.3616 14.9138 30.2076 14.383 28.9048 14.383C27.5 14.383 26.1868 15.0258 24.9664 16.3134C23.7452 17.601 23.1352 18.947 23.1352 20.3518C23.1352 21.523 23.7032 22.1074 24.8408 22.1074H30.6096C32.7828 22.0746 33.8704 21.233 33.8704 19.583Z" fill="black"/>
</svg>
