<svg width="40" height="40" viewBox="0 0 40 40" fill="none" xmlns="http://www.w3.org/2000/svg">
<path d="M20 40.0002C31.0457 40.0002 40 31.0459 40 20.0002C40 8.95452 31.0457 0.000213623 20 0.000213623C8.95431 0.000213623 0 8.95452 0 20.0002C0 31.0459 8.95431 40.0002 20 40.0002Z" fill="#66CCFF"/>
<path d="M26.9952 33.4878C25.0804 35.4362 22.7216 36.4106 19.92 36.4106C16.7756 36.4106 14.2808 35.3346 12.4356 33.1814C10.692 31.1306 9.8208 28.5166 9.8208 25.339C9.8208 21.9218 11.3076 18.0246 14.2808 13.6494C16.7064 10.0618 19.5604 6.91739 22.8416 4.21739C22.3628 6.40499 22.1244 7.95939 22.1244 8.88219C22.1244 11.0018 22.79 13.069 24.1228 15.0854C25.7636 17.4774 27.0104 19.2558 27.8656 20.4166C29.1984 22.4338 29.8648 24.3986 29.8648 26.3114C29.8656 29.1486 28.9084 31.541 26.9952 33.4878ZM26.9436 22.543C26.4312 21.3986 25.8328 20.6382 25.1492 20.2618C25.2516 20.4674 25.3032 20.7578 25.3032 21.1338C25.3032 21.8518 25.0984 22.8766 24.6876 24.2094L24.022 26.2602C24.022 27.4562 24.6188 28.0546 25.8156 28.0546C27.0796 28.0546 27.7124 27.2166 27.7124 25.5422C27.7124 24.6886 27.4564 23.6894 26.9436 22.543Z" fill="black"/>
</svg>
