<svg width="40" height="40" viewBox="0 0 40 40" fill="none" xmlns="http://www.w3.org/2000/svg">
<g clip-path="url(#clip0_882_21)">
<path d="M40 20.0002C40 31.0438 31.0472 40.0002 20 40.0002C8.9528 40.0002 0 31.0438 0 20.0002C0 8.95661 8.9528 0.000213623 20 0.000213623C31.0472 0.000213623 40 8.95661 40 20.0002Z" fill="#FFD700"/>
<path d="M19.8748 4.81061C20.8648 6.79781 22.0764 8.72781 23.5132 10.6006C24.1244 11.387 24.8248 12.209 25.6148 13.0594C26.394 13.9098 27.2588 14.7606 28.1952 15.597C29.1388 16.4334 30.1716 17.2266 31.2976 17.9774C32.4236 18.7278 33.6348 19.4142 34.936 20.029C33.024 21.0514 31.1296 22.295 29.246 23.7674C28.4636 24.3822 27.6448 25.0898 26.7872 25.8974C25.9368 26.6982 25.1004 27.5774 24.282 28.5278C23.4636 29.4926 22.6772 30.5294 21.9232 31.6586C21.1724 32.781 20.49 33.9746 19.8752 35.2398C18.9172 33.3598 17.7236 31.5014 16.2904 29.6574C15.0608 28.085 13.5064 26.4338 11.6264 24.6894C9.74999 22.9454 7.47719 21.3942 4.81439 20.029C6.72999 19.0354 8.62439 17.8062 10.504 16.3406C12.1088 15.0754 13.7636 13.4958 15.4684 11.6014C17.1764 9.70701 18.6416 7.44821 19.8748 4.81061ZM17.6732 25.9686C18.5632 27.0982 19.2956 28.2418 19.8748 29.3998C20.6288 27.7914 21.5332 26.4118 22.5872 25.2538C23.6452 24.0886 24.6744 23.1166 25.6644 22.3302C26.79 21.451 27.966 20.679 29.1992 20.0214C27.5588 19.2778 26.1648 18.3702 25.0248 17.3122C23.8776 16.2542 22.9124 15.2322 22.13 14.2386C21.24 13.1166 20.486 11.9226 19.8748 10.6574C19.1244 12.2942 18.2236 13.6954 17.1872 14.8534C16.1436 16.0186 15.1288 16.9834 14.1384 17.777C13.0092 18.6634 11.8332 19.4066 10.6036 20.0286C12.244 20.8794 13.6416 21.837 14.8032 22.895C15.9648 23.953 16.9228 24.9822 17.6732 25.9686Z" fill="black"/>
</g>
<defs>
<clipPath id="clip0_882_21">
<rect width="40" height="40" fill="white"/>
</clipPath>
</defs>
</svg>
