<svg width="40" height="40" viewBox="0 0 40 40" fill="none" xmlns="http://www.w3.org/2000/svg">
<path d="M40 19.9994C40 31.0454 31.046 40.0002 19.9992 40.0002C8.954 40.0002 0 31.0454 0 19.9994C0 8.95421 8.954 0.000213623 19.9992 0.000213623C31.046 0.000213623 40 8.95421 40 19.9994Z" fill="#66FF66"/>
<path d="M37.5048 22.4902C37.5048 23.1574 37.2468 23.7558 36.7304 24.2894C36.2148 24.8222 35.6224 25.0886 34.956 25.0886C33.8912 25.0886 33.1068 24.5886 32.6084 23.5894L30.26 23.4894C29.7592 23.4894 28.7764 23.7066 27.3116 24.1394C25.746 24.5722 24.846 24.9222 24.6132 25.1886C24.2468 25.5878 23.9476 26.5214 23.714 27.987C23.5132 29.1862 23.4148 30.069 23.4148 30.6354C23.4148 31.5338 23.5556 32.1926 23.8392 32.609C24.1228 33.0254 24.7056 33.3754 25.5876 33.6582C26.4696 33.941 27.012 34.0998 27.212 34.133C27.3448 34.133 27.5612 34.1166 27.862 34.083H28.4612C28.8932 34.083 29.3432 34.151 29.8104 34.283C30.4768 34.483 30.7604 34.7494 30.6604 35.083C30.1932 35.0166 29.3776 35.1166 28.212 35.383L29.6104 36.0822C29.6104 36.4822 29.044 36.6814 27.912 36.6814C27.6112 36.6814 27.2036 36.615 26.6868 36.4822C26.1704 36.3478 25.8288 36.2822 25.6632 36.2822H25.0132C24.9804 36.615 24.8796 37.1142 24.7132 37.7806C24.146 37.747 23.4812 37.4134 22.7148 36.7814C21.9476 36.1494 21.4656 35.8322 21.2664 35.8322C21.0656 35.8322 20.782 36.1494 20.4164 36.7814C20.0492 37.4134 19.8664 37.847 19.8664 38.0806C19.4336 37.847 19.068 37.4134 18.7664 36.7814C18.6336 36.3478 18.4836 35.915 18.318 35.4822C17.9852 35.5158 17.368 36.2158 16.4696 37.5814H16.2188C16.1524 37.4806 15.9008 36.7814 15.4696 35.4822C14.4368 35.1494 13.4712 34.983 12.5712 34.983C12.1384 34.983 11.472 35.083 10.5728 35.2822L9.17442 35.183C9.37362 34.983 9.95642 34.6002 10.9228 34.0338C12.0548 33.3674 12.9212 33.0338 13.5212 33.0338C13.6196 33.0338 13.7524 33.051 13.9212 33.0838C14.0868 33.1182 14.2212 33.1338 14.3212 33.1338C14.5524 33.1338 14.9284 33.009 15.4448 32.7586C15.9612 32.5094 16.2604 32.2842 16.3432 32.085C16.4276 31.8834 16.4696 31.3678 16.4696 30.535C16.4696 28.6366 15.9696 27.221 14.9696 26.2882C14.1024 25.4554 12.6712 24.8562 10.672 24.489C10.1392 26.3874 8.64003 27.3382 6.17603 27.3382C5.37603 27.3382 4.57682 26.8554 3.77762 25.889C2.97922 24.9226 2.57922 24.0398 2.57922 23.2406C2.57922 22.0078 3.09402 20.9922 4.12682 20.1914C3.29483 19.3266 2.87842 18.4438 2.87842 17.5446C2.87842 16.711 3.13563 15.979 3.65283 15.3446C4.16923 14.7134 4.84363 14.3462 5.67643 14.2454C5.61003 13.1806 5.95923 12.447 6.72563 12.047C6.35923 11.6814 6.17643 11.0322 6.17643 10.0994C6.17643 9.00018 6.54283 8.08378 7.27563 7.35098C8.00763 6.61818 8.92402 6.25098 10.0232 6.25098C11.2232 6.25098 12.206 6.66898 12.9716 7.50098C13.938 4.20338 16.02 2.55418 19.2168 2.55418C20.8824 2.55418 22.348 3.22058 23.6144 4.55338C24.0808 5.05258 24.3136 5.31978 24.3136 5.35178C23.9136 5.35178 24.1144 5.27658 24.9136 5.12738C25.712 4.97738 26.2948 4.90218 26.6628 4.90218C27.9612 4.90218 29.1104 5.38498 30.1104 6.35138C30.976 7.21778 31.576 8.31618 31.9096 9.64898C32.1416 9.68258 32.5088 9.78178 33.0088 9.94818C33.7408 10.3162 34.108 10.9474 34.108 11.8474C34.108 12.0146 33.9736 12.331 33.708 12.7966C35.8392 13.9958 36.9056 15.6614 36.9056 17.7934C36.9056 18.3926 36.6728 19.227 36.2064 20.2922C37.0728 20.791 37.5048 21.5246 37.5048 22.4902ZM16.918 24.6886V24.0394C16.918 23.2738 16.5436 22.5738 15.7944 21.941C15.0444 21.3082 14.2864 20.9918 13.5208 20.9918C12.5872 20.9918 11.7224 21.2082 10.9224 21.6402C12.6876 21.541 14.6868 22.5574 16.918 24.6886ZM16.0196 18.493C15.5196 17.9258 15.0868 17.343 14.7196 16.7438C13.3204 17.1102 12.6212 17.5266 12.6212 17.9922C13.0212 17.9602 13.604 18.0342 14.3696 18.2178C15.1352 18.4014 15.686 18.493 16.0196 18.493ZM19.068 16.9438V14.7454C18.268 14.6126 17.7836 14.5454 17.6188 14.5454V15.2946L19.068 16.9438ZM25.5632 15.5446C25.1632 15.3782 24.4132 15.0446 23.3148 14.5454V18.8422C24.8796 17.9422 25.6288 16.843 25.5632 15.5446ZM28.31 21.441L27.2116 20.0918C26.546 20.5586 25.8708 21.0334 25.1872 21.5162C24.5036 21.999 23.9128 22.5414 23.4144 23.1402C24.9132 22.3394 26.546 21.7746 28.31 21.441Z" fill="black"/>
</svg>
