<svg width="40" height="40" viewBox="0 0 40 40" fill="none" xmlns="http://www.w3.org/2000/svg">
<path d="M20 40.0002C31.0457 40.0002 40 31.0459 40 20.0002C40 8.95452 31.0457 0.000213623 20 0.000213623C8.95431 0.000213623 0 8.95452 0 20.0002C0 31.0459 8.95431 40.0002 20 40.0002Z" fill="#FF3333"/>
<path d="M36.7861 26.647C35.2917 30.2118 32.3221 31.9938 27.8761 31.9938C27.0613 31.9938 26.1777 32.0954 25.2277 32.2986C23.8021 32.6042 23.0893 33.0298 23.0893 33.573C23.0893 33.7426 23.2073 33.937 23.4457 34.1582C23.6825 34.3794 23.8873 34.4886 24.0565 34.4886C23.2073 34.4886 23.7845 34.5142 25.7869 34.565C27.7901 34.6158 29.0461 34.6414 29.5557 34.6414C26.6025 36.3718 21.6629 37.169 14.7385 37.0338C12.4633 37.0002 10.5121 35.9986 8.88286 34.0298C7.28606 32.1622 6.48926 30.0746 6.48926 27.7666C6.48926 25.3234 7.31206 23.2434 8.95966 21.5286C10.6049 19.8158 12.6513 18.9578 15.0949 18.9578C15.6377 18.9578 16.3589 19.0766 17.2589 19.3142C18.1581 19.5518 18.7613 19.6706 19.0661 19.6706C20.3217 19.6706 21.8841 19.1534 23.7513 18.1174C25.6177 17.0822 26.5013 16.5642 26.3997 16.5642C26.0597 20.129 24.8717 22.5226 22.8341 23.7434C21.3749 24.5926 20.6449 25.4238 20.6449 26.2378C20.6449 26.747 20.9505 27.155 21.5613 27.4606C22.0365 27.6986 22.5621 27.8174 23.1393 27.8174C24.0221 27.8174 24.8877 27.275 25.7369 26.189C26.5845 25.1018 26.9589 24.1182 26.8573 23.2346C26.7557 22.2166 26.8237 20.9934 27.0613 19.569C27.1285 19.161 27.3745 18.661 27.7989 18.0674C28.2233 17.473 28.6053 17.1082 28.9449 16.9722C28.9449 17.277 28.8349 17.787 28.6137 18.4994C28.3925 19.2118 28.2833 19.7394 28.2833 20.0782C28.2833 20.825 28.4865 21.4018 28.8941 21.8086C29.5041 21.5718 30.0473 20.8078 30.5237 19.517C30.9301 18.5334 31.1673 17.5826 31.2361 16.6662C29.8097 16.5982 28.4433 15.9538 27.1369 14.731C25.8297 13.5082 25.1769 12.185 25.1769 10.7598C25.1769 10.5222 25.2097 10.2846 25.2793 10.0466C25.4825 10.3522 25.7877 10.8278 26.1949 11.4722C26.7721 12.3206 27.2137 12.745 27.5201 12.745C27.9265 12.745 28.1301 12.3206 28.1301 11.4722C28.1301 10.3862 27.8409 9.40182 27.2645 8.51902C26.6193 7.46662 25.7873 6.94022 24.7693 6.94022C24.2937 6.94022 23.5809 7.19502 22.6317 7.70422C21.6801 8.21262 20.8145 8.46822 20.0349 8.46822C19.7965 8.46822 18.7433 8.16182 16.8769 7.55102C20.1689 7.00902 21.8161 6.51662 21.8161 6.07462C21.8161 4.92062 19.5581 4.13942 15.0441 3.73262C14.6021 3.69902 13.7877 3.63102 12.5997 3.52862C12.7349 3.35902 13.7029 3.17222 15.5029 2.96862C17.0301 2.79982 18.0997 2.71382 18.7101 2.71382C26.7889 2.71382 31.9149 6.63582 34.0873 14.477C34.4609 14.1678 34.6481 13.6506 34.6481 12.9286C34.6481 11.999 34.3761 10.8286 33.8333 9.41782C33.6285 8.86782 33.3061 8.04142 32.8653 6.94062C35.6481 10.4874 37.0409 13.8486 37.0409 17.0202C37.0409 18.6914 36.6493 20.2094 35.8689 21.5726C35.3609 22.4938 34.4089 23.6702 33.0181 25.103C31.6261 26.535 30.6753 27.6438 30.1657 28.4282C32.0329 27.9198 33.2557 27.529 33.8329 27.257C35.1221 26.681 36.2929 25.8146 37.3461 24.6602C37.3461 25.1026 37.1593 25.765 36.7861 26.647ZM14.5853 6.63702C14.5853 7.24702 14.2453 7.63782 13.5673 7.80742L12.2429 8.01142C11.7673 8.24902 11.0717 9.18262 10.1553 10.8114C10.0529 10.303 9.90046 9.59022 9.69686 8.67302C9.39126 8.70742 8.88285 8.97862 8.16965 9.48782C7.86405 9.72542 7.37126 10.0814 6.69246 10.5566C6.89726 9.33462 7.57525 8.09742 8.73005 6.83942C9.95205 5.44862 11.1401 4.75262 12.2941 4.75262C13.8213 4.75262 14.5853 5.38142 14.5853 6.63702ZM23.4453 11.3206C23.4453 11.8978 23.1313 12.3822 22.5033 12.7722C21.8753 13.163 21.2557 13.3582 20.6449 13.3582C19.8301 13.3582 19.0997 12.8998 18.4557 11.983C17.6737 10.8626 16.8769 10.133 16.0621 9.79222C16.2317 9.62342 16.4357 9.53822 16.6737 9.53822C16.9793 9.53822 17.4957 9.77582 18.2261 10.2506C18.9557 10.7262 19.4221 10.9638 19.6269 10.9638C19.7965 10.9638 20.0761 10.7262 20.4669 10.2506C20.8569 9.77542 21.2897 9.53822 21.7653 9.53822C22.8853 9.53862 23.4453 10.133 23.4453 11.3206Z" fill="black"/>
</svg>
