<svg width="40" height="40" viewBox="0 0 40 40" fill="none" xmlns="http://www.w3.org/2000/svg">
<path d="M20.0003 40.0002C31.0459 40.0002 40.0001 31.0459 40.0001 20.0002C40.0001 8.95452 31.0459 0.000213623 20.0003 0.000213623C8.9547 0.000213623 0.000488281 8.95452 0.000488281 20.0002C0.000488281 31.0459 8.9547 40.0002 20.0003 40.0002Z" fill="#D8F7FA"/>
<path d="M15.137 35.663L16.079 34.031L20.0002 39.5526L23.921 34.031L24.863 35.663L26.5981 35.6834L30.0001 37.3214L30.2829 33.5566L31.1329 32.0422L30.1913 30.411L36.9332 29.7758L34.1113 23.6202H35.9956L36.8808 22.1274L39.9996 20.0002L36.8808 17.8726L35.9956 16.3802H34.1113L36.9328 10.2238L30.1913 9.58942L31.1329 7.95742L30.2825 6.44462L29.9997 2.67982L26.5981 4.31702L24.863 4.33742L23.921 5.96902L19.9998 0.447418L16.079 5.96902L15.137 4.33742L13.4019 4.31702L9.9999 2.67982L9.7171 6.44462L8.86711 7.95742L9.8091 9.58942L3.06677 10.2242L5.88874 16.3802H4.00436L3.11917 17.873L0 20.0002L3.11877 22.1274L4.00436 23.6202H5.88874L3.06717 29.7766L9.8091 30.411L8.86711 32.0422L9.7171 33.5558L10.0003 37.3214L13.4019 35.6838L15.137 35.663Z" fill="black"/>
<path d="M13.9579 32.0846L19.9998 22.3502L26.0417 32.0846V33.7038L27.4433 34.513L28.8461 33.7034V32.085L27.4433 31.2754L22.035 21.1754L33.4865 20.8094L34.8888 21.6194L36.2904 20.8102V19.1906L34.8888 18.3814L33.4865 19.1906L22.035 18.8254L27.4441 8.72541L28.8465 7.91581V6.29741L27.4441 5.48781L26.0425 6.29701L26.0417 7.91581L20.0002 17.6502L13.9583 7.91581L13.9579 6.29661L12.5567 5.48741L11.1539 6.29741V7.91581L12.5563 8.72541L17.965 18.8254L6.51393 19.1906L5.11115 18.3814L3.70996 19.1902V20.8094L5.11115 21.619L6.51393 20.8094L17.965 21.1754L12.5559 31.2754L11.1539 32.0846L11.1535 33.7034L12.5559 34.5126L13.9579 33.7034V32.0846Z" fill="#75EAF5"/>
<path d="M22.8202 8.95742L20.0002 13.8726L17.1802 8.95742L20.0002 4.04182L22.8202 8.95742Z" fill="#75EAF5"/>
<path d="M11.8467 12.0362L14.6934 16.9362L9.0267 16.9206L6.17993 12.021L11.8467 12.0362Z" fill="#75EAF5"/>
<path d="M9.02631 23.079L14.693 23.0638L11.8463 27.9634L6.17953 27.979L9.02631 23.079Z" fill="#75EAF5"/>
<path d="M17.1794 31.043L19.9998 26.1274L22.8198 31.043L19.9998 35.9586L17.1794 31.043Z" fill="#75EAF5"/>
<path d="M28.1533 27.9642L25.3069 23.0642L30.9733 23.0798L33.8201 27.979L28.1533 27.9642Z" fill="#75EAF5"/>
<path d="M30.9741 16.9214L25.3069 16.9366L28.1537 12.037L33.8201 12.0214L30.9741 16.9214Z" fill="#75EAF5"/>
</svg>
