<svg width="40" height="40" viewBox="0 0 40 40" fill="none" xmlns="http://www.w3.org/2000/svg">
<path d="M20 40.0002C31.0457 40.0002 40 31.0459 40 20.0002C40 8.95452 31.0457 0.000213623 20 0.000213623C8.95431 0.000213623 0 8.95452 0 20.0002C0 31.0459 8.95431 40.0002 20 40.0002Z" fill="#FFE382"/>
<path d="M39.0764 22.8258C36.452 21.3462 34.7692 20.6054 34.0296 20.6054C33.492 20.6054 33.0716 21.0182 32.768 21.8422C32.4648 22.6674 31.86 23.0782 30.9516 23.0782C30.5812 23.0782 29.8244 22.9438 28.6804 22.675C28.0412 23.651 27.7212 24.2734 27.7212 24.5422C27.7212 24.9126 27.9968 25.3486 28.5468 25.8546C29.0968 26.3594 29.5608 26.611 29.9396 26.611C30.1804 26.611 30.506 26.561 30.9192 26.4594C31.3316 26.3594 31.6076 26.3086 31.7448 26.3086C32.158 26.3086 32.3636 27.0658 32.3636 28.5798C32.3636 30.0266 32.0276 32.247 31.3544 35.2414C30.4792 31.8094 29.5544 30.093 28.5792 30.093C28.444 30.093 28.1668 30.1938 27.7464 30.397C27.3252 30.5978 27.0144 30.6986 26.8128 30.6986C25.8376 30.6986 24.9628 29.8078 24.1884 28.0234C22.6408 28.2594 21.8664 29.0502 21.8664 30.397C21.8664 31.0706 22.1772 31.6078 22.8008 32.011C23.422 32.4142 23.7344 32.7018 23.7344 32.869C23.7344 33.7782 22.4048 35.1746 19.7468 37.0582C18.3344 38.0674 17.3576 38.7738 16.8204 39.177C17.29 38.5722 17.7612 37.7822 18.2336 36.8058C18.7712 35.6958 19.0408 34.8378 19.0408 34.2314C19.0408 33.8954 18.654 33.4234 17.88 32.8182C17.1056 32.2134 16.72 31.5738 16.72 30.901C16.72 30.3298 16.9208 29.6238 17.3248 28.7814C16.8872 28.2766 16.3668 28.0234 15.7608 28.0234C14.4148 28.0234 13.7428 28.4618 13.7428 29.3354C13.7428 28.7298 13.7428 29.1838 13.7428 30.6978C13.7756 31.8082 12.9348 32.3634 11.2184 32.3634C9.90682 32.3634 7.70201 32.0598 4.60761 31.455C8.10681 30.5798 9.85603 29.5706 9.85603 28.427C9.85603 28.5614 9.78882 28.1582 9.65442 27.2158C9.51922 26.1742 10.26 25.2314 11.8748 24.3906C11.5716 22.8438 10.7656 22.0682 9.45202 22.0682C9.25042 22.0682 8.87923 22.4218 8.34203 23.127C7.80363 23.8354 7.29922 24.1878 6.82882 24.1878C6.02082 24.1878 4.97722 23.3134 3.70002 21.5626C3.09362 20.689 2.16803 19.393 0.92363 17.6766C1.69723 18.0814 2.47123 18.4846 3.24563 18.889C4.25483 19.3594 5.06202 19.5954 5.66842 19.5954C6.13962 19.5954 6.60203 19.183 7.05603 18.3586C7.51003 17.5342 8.10762 17.1218 8.84762 17.1218C8.94922 17.1218 9.62201 17.3234 10.8664 17.7282C11.5048 16.7526 11.8256 16.029 11.8256 15.5578C11.8256 15.1538 11.5812 14.6914 11.0936 14.1694C10.6052 13.6482 10.16 13.3874 9.75603 13.3874C9.58723 13.3874 9.32723 13.4374 8.97323 13.539C8.62083 13.6398 8.36003 13.6906 8.19203 13.6906C7.58563 13.6906 7.28282 12.9334 7.28282 11.4194C7.28282 11.0154 7.67042 8.7114 8.44442 4.5054C8.41002 5.0094 8.62882 5.9522 9.10002 7.331C9.67202 9.0138 10.3444 9.8546 11.1196 9.8546C11.2532 9.8546 11.5228 9.7538 11.9268 9.5514C12.33 9.3498 12.6496 9.2498 12.8852 9.2498C13.6588 9.2498 14.2976 9.6874 14.8032 10.5606L15.5604 11.923C16.2668 11.923 16.8556 11.6714 17.326 11.1666C17.7972 10.6618 18.0332 10.0558 18.0332 9.3494C18.0332 8.6094 17.7224 8.0454 17.0996 7.6586C16.476 7.2718 16.1652 6.9774 16.1652 6.7758C16.1652 6.0686 17.276 4.875 19.4964 3.1926C21.2792 1.8474 22.44 1.0566 22.9792 0.820602C21.5324 2.7722 20.8088 4.201 20.8088 5.1102C20.8088 5.5814 21.094 6.0866 21.6668 6.6242C22.3732 7.2634 22.7768 7.7178 22.8776 7.9866C23.2136 8.7618 23.18 9.821 22.7768 11.1662C23.6852 11.8062 24.3744 12.1246 24.8464 12.1246C25.8208 12.1246 26.3096 11.619 26.3096 10.6106C26.3096 10.5098 26.2676 10.1902 26.184 9.6522C26.0988 9.1146 26.0748 8.8114 26.1076 8.7438C26.242 8.2726 27.1676 8.0366 28.8832 8.0366C29.9596 8.0366 32.1964 8.3398 35.5956 8.9458C34.8548 9.1474 33.7448 9.4498 32.2652 9.8538C30.9192 10.2578 30.2456 10.7118 30.2456 11.2162C30.2456 11.4522 30.3292 11.8554 30.498 12.427C30.666 12.9998 30.7512 13.419 30.7512 13.6894C30.7512 14.1598 30.448 14.5974 29.8428 15.0002L28.1264 16.2126C28.5304 16.9534 28.7992 17.3906 28.9344 17.5242C29.2704 17.9274 29.7244 18.1298 30.2968 18.1298C30.7008 18.1298 31.0704 17.7766 31.4068 17.0706C31.7428 16.3634 32.282 16.0106 33.0216 16.0106C33.9296 16.0106 34.9568 16.8522 36.1004 18.535C36.7376 19.479 37.7304 20.9082 39.0764 22.8258ZM27.8736 19.8994C27.8736 17.747 27.082 15.879 25.5008 14.297C23.9196 12.7158 22.0524 11.925 19.8992 11.925C17.7116 11.925 15.8272 12.7078 14.2468 14.2726C12.6656 15.8366 11.8576 17.7126 11.8248 19.899C11.7904 22.0522 12.5896 23.911 14.2216 25.4742C15.8536 27.039 17.746 27.8218 19.8988 27.8218C22.1864 27.8218 24.0956 27.0726 25.626 25.5758C27.158 24.0798 27.9064 22.1878 27.8736 19.8994ZM27.1164 19.8994C27.1164 21.9518 26.4264 23.6518 25.0468 24.9954C23.6664 26.3422 21.9508 27.015 19.8992 27.015C17.914 27.015 16.2148 26.3258 14.8024 24.9454C13.39 23.5674 12.6828 21.8846 12.6828 19.8994C12.6828 17.9486 13.3968 16.2738 14.8264 14.8782C16.2576 13.4822 17.9476 12.783 19.8992 12.783C21.85 12.783 23.5408 13.4894 24.9712 14.9034C26.4008 16.3166 27.1164 17.9814 27.1164 19.8994Z" fill="black"/>
</svg>
